<svg width="491" height="491" viewBox="0 0 491 491" fill="none" xmlns="http://www.w3.org/2000/svg">
<path d="M193 52.5C193 23.5051 216.505 0 245.5 0C274.495 0 298 23.5051 298 52.5V438.5C298 467.495 274.495 491 245.5 491C216.505 491 193 467.495 193 438.5V52.5Z" fill="white"/>
<path d="M52.2814 297.189C23.2867 297.068 -0.119516 273.464 0.0021814 244.47C0.123879 215.475 23.7274 192.069 52.7221 192.19L438.719 193.811C467.713 193.932 491.12 217.536 490.998 246.53C490.876 275.525 467.273 298.931 438.278 298.81L52.2814 297.189Z" fill="white"/>
</svg>
