<svg width="10" height="12" viewBox="0 0 10 12" fill="none" xmlns="http://www.w3.org/2000/svg">
<path d="M3.84615 0C3.42067 0 3.07692 0.335156 3.07692 0.75C3.07692 1.16484 3.42067 1.5 3.84615 1.5H4.23077V2.30625C1.83413 2.66719 0 4.6875 0 7.125C0 9.81797 2.23798 12 5 12C7.76202 12 10 9.81797 10 7.125C10 6.14531 9.70433 5.23359 9.19471 4.47188L9.77404 3.90703C10.0745 3.61406 10.0745 3.13828 9.77404 2.84531C9.47356 2.55234 8.98558 2.55234 8.6851 2.84531L8.16587 3.35156C7.49039 2.8125 6.67067 2.44219 5.76923 2.30625V1.5H6.15385C6.57933 1.5 6.92308 1.16484 6.92308 0.75C6.92308 0.335156 6.57933 0 6.15385 0H5H3.84615ZM5.57692 4.5V7.5C5.57692 7.81172 5.31971 8.0625 5 8.0625C4.68029 8.0625 4.42308 7.81172 4.42308 7.5V4.5C4.42308 4.18828 4.68029 3.9375 5 3.9375C5.31971 3.9375 5.57692 4.18828 5.57692 4.5Z" fill="#6C757D"/>
</svg>
